<svg xmlns="http://www.w3.org/2000/svg" viewBox="0 0 512 512">
  <rect width="512" height="512" rx="80" fill="#0e1219"/>
  <!-- Sound wave arcs -->
  <path d="M180 256 Q180 180 256 180 Q332 180 332 256 Q332 332 256 332 Q180 332 180 256" fill="none" stroke="#a1d67c" stroke-width="18" stroke-linecap="round" opacity="0.3"/>
  <path d="M210 256 Q210 210 256 210 Q302 210 302 256 Q302 302 256 302 Q210 302 210 256" fill="none" stroke="#a1d67c" stroke-width="18" stroke-linecap="round" opacity="0.6"/>
  <circle cx="256" cy="256" r="28" fill="#a1d67c"/>
  <!-- Vertical bars left -->
  <rect x="130" y="224" width="14" height="64" rx="7" fill="#a1d67c" opacity="0.5"/>
  <rect x="104" y="200" width="14" height="112" rx="7" fill="#a1d67c" opacity="0.3"/>
  <!-- Vertical bars right -->
  <rect x="368" y="224" width="14" height="64" rx="7" fill="#a1d67c" opacity="0.5"/>
  <rect x="394" y="200" width="14" height="112" rx="7" fill="#a1d67c" opacity="0.3"/>
</svg>
